<mxfile host="app.diagrams.net" agent="Mozilla/5.0 (Windows NT 10.0; Win64; x64) AppleWebKit/537.36 (KHTML, like Gecko) Chrome/134.0.0.0 Safari/537.36" version="26.1.3">
  <diagram id="C5RBs43oDa-KdzZeNtuy" name="Page-1">
    <mxGraphModel dx="1134" dy="649" grid="1" gridSize="10" guides="1" tooltips="1" connect="1" arrows="1" fold="1" page="1" pageScale="1" pageWidth="827" pageHeight="1169" math="0" shadow="0">
      <root>
        <mxCell id="WIyWlLk6GJQsqaUBKTNV-0" />
        <mxCell id="WIyWlLk6GJQsqaUBKTNV-1" parent="WIyWlLk6GJQsqaUBKTNV-0" />
        <mxCell id="0a4aOfJggsSZIfLgrf9M-0" value="Pool" style="swimlane;childLayout=stackLayout;resizeParent=1;resizeParentMax=0;startSize=20;horizontal=0;horizontalStack=1;" vertex="1" parent="WIyWlLk6GJQsqaUBKTNV-1">
          <mxGeometry x="50" width="260" height="990" as="geometry" />
        </mxCell>
        <mxCell id="0a4aOfJggsSZIfLgrf9M-1" value="DQ and Reporting Analyst" style="swimlane;startSize=20;" vertex="1" parent="0a4aOfJggsSZIfLgrf9M-0">
          <mxGeometry x="20" width="240" height="990" as="geometry" />
        </mxCell>
        <mxCell id="0a4aOfJggsSZIfLgrf9M-5" value="Review Rule Metadata and prepare SQL query" style="rounded=0;whiteSpace=wrap;html=1;" vertex="1" parent="0a4aOfJggsSZIfLgrf9M-1">
          <mxGeometry x="20" y="30" width="190" height="70" as="geometry" />
        </mxCell>
        <mxCell id="0a4aOfJggsSZIfLgrf9M-11" value="Test SQL query and share the result with Business" style="rounded=0;whiteSpace=wrap;html=1;" vertex="1" parent="0a4aOfJggsSZIfLgrf9M-1">
          <mxGeometry x="20" y="120" width="190" height="70" as="geometry" />
        </mxCell>
        <mxCell id="0a4aOfJggsSZIfLgrf9M-16" value="Create new branch based on &#39;Dev&#39; branch in DBX" style="rounded=0;whiteSpace=wrap;html=1;" vertex="1" parent="0a4aOfJggsSZIfLgrf9M-1">
          <mxGeometry x="25" y="220" width="190" height="70" as="geometry" />
        </mxCell>
        <mxCell id="0a4aOfJggsSZIfLgrf9M-14" value="Create Change Request" style="rounded=0;whiteSpace=wrap;html=1;" vertex="1" parent="0a4aOfJggsSZIfLgrf9M-1">
          <mxGeometry x="25" y="747.5" width="190" height="70" as="geometry" />
        </mxCell>
        <mxCell id="0a4aOfJggsSZIfLgrf9M-27" value="1. Update relevant DDL script to add view.&lt;div&gt;2. Update DML file with rule metadata&lt;/div&gt;&lt;div&gt;3. Run the notebook to create score, and history tables.&lt;/div&gt;&lt;div&gt;4. &#39;Commit and Push&#39; the changes in local branch&lt;/div&gt;" style="whiteSpace=wrap;html=1;aspect=fixed;" vertex="1" parent="0a4aOfJggsSZIfLgrf9M-1">
          <mxGeometry x="30" y="310" width="190" height="190" as="geometry" />
        </mxCell>
        <mxCell id="0a4aOfJggsSZIfLgrf9M-35" value="1. Pull the changes to &#39;QA branch.&lt;div&gt;2. Execute DDL, DML and notebook.&lt;/div&gt;&lt;div&gt;3. Create the pbix file and publish to PowerBI QA workspace.&lt;/div&gt;&lt;div&gt;4. Send the testing result to manager for production promotion.&lt;span style=&quot;background-color: transparent; color: light-dark(rgb(0, 0, 0), rgb(255, 255, 255));&quot;&gt;&#39;&lt;/span&gt;&lt;/div&gt;" style="whiteSpace=wrap;html=1;aspect=fixed;" vertex="1" parent="0a4aOfJggsSZIfLgrf9M-1">
          <mxGeometry x="25" y="540" width="190" height="190" as="geometry" />
        </mxCell>
        <mxCell id="0a4aOfJggsSZIfLgrf9M-12" value="Close Ticket" style="rounded=0;whiteSpace=wrap;html=1;" vertex="1" parent="0a4aOfJggsSZIfLgrf9M-1">
          <mxGeometry x="30" y="880" width="190" height="70" as="geometry" />
        </mxCell>
        <mxCell id="0a4aOfJggsSZIfLgrf9M-8" value="Business User" style="swimlane;startSize=20;" vertex="1" parent="WIyWlLk6GJQsqaUBKTNV-1">
          <mxGeometry x="630" width="175" height="990" as="geometry" />
        </mxCell>
        <mxCell id="0a4aOfJggsSZIfLgrf9M-17" value="Result OK" style="rhombus;whiteSpace=wrap;html=1;" vertex="1" parent="0a4aOfJggsSZIfLgrf9M-8">
          <mxGeometry x="55" y="100" width="80" height="80" as="geometry" />
        </mxCell>
        <mxCell id="0a4aOfJggsSZIfLgrf9M-9" value="Request for new rule/scorecard" style="rounded=0;whiteSpace=wrap;html=1;" vertex="1" parent="0a4aOfJggsSZIfLgrf9M-8">
          <mxGeometry x="15" y="40" width="130" height="30" as="geometry" />
        </mxCell>
        <mxCell id="0a4aOfJggsSZIfLgrf9M-51" value="Review and Confirm Results" style="rhombus;whiteSpace=wrap;html=1;" vertex="1" parent="0a4aOfJggsSZIfLgrf9M-8">
          <mxGeometry x="60" y="740" width="85" height="140" as="geometry" />
        </mxCell>
        <mxCell id="0a4aOfJggsSZIfLgrf9M-56" value="NO" style="text;strokeColor=none;align=center;fillColor=none;html=1;verticalAlign=middle;whiteSpace=wrap;rounded=0;" vertex="1" parent="0a4aOfJggsSZIfLgrf9M-8">
          <mxGeometry x="90" y="330" width="60" height="30" as="geometry" />
        </mxCell>
        <mxCell id="0a4aOfJggsSZIfLgrf9M-24" style="edgeStyle=orthogonalEdgeStyle;rounded=0;orthogonalLoop=1;jettySize=auto;html=1;exitX=0.5;exitY=0;exitDx=0;exitDy=0;entryX=1.018;entryY=0.667;entryDx=0;entryDy=0;entryPerimeter=0;" edge="1" parent="WIyWlLk6GJQsqaUBKTNV-1" source="0a4aOfJggsSZIfLgrf9M-17" target="0a4aOfJggsSZIfLgrf9M-5">
          <mxGeometry relative="1" as="geometry">
            <Array as="points">
              <mxPoint x="665" y="90" />
              <mxPoint x="283" y="90" />
            </Array>
          </mxGeometry>
        </mxCell>
        <mxCell id="0a4aOfJggsSZIfLgrf9M-25" style="edgeStyle=orthogonalEdgeStyle;rounded=0;orthogonalLoop=1;jettySize=auto;html=1;entryX=0;entryY=0.5;entryDx=0;entryDy=0;" edge="1" parent="WIyWlLk6GJQsqaUBKTNV-1" source="0a4aOfJggsSZIfLgrf9M-11" target="0a4aOfJggsSZIfLgrf9M-17">
          <mxGeometry relative="1" as="geometry">
            <Array as="points">
              <mxPoint x="625" y="165" />
            </Array>
          </mxGeometry>
        </mxCell>
        <mxCell id="0a4aOfJggsSZIfLgrf9M-26" style="edgeStyle=orthogonalEdgeStyle;rounded=0;orthogonalLoop=1;jettySize=auto;html=1;exitX=0.5;exitY=1;exitDx=0;exitDy=0;entryX=1;entryY=0.5;entryDx=0;entryDy=0;" edge="1" parent="WIyWlLk6GJQsqaUBKTNV-1" source="0a4aOfJggsSZIfLgrf9M-17" target="0a4aOfJggsSZIfLgrf9M-16">
          <mxGeometry relative="1" as="geometry" />
        </mxCell>
        <mxCell id="0a4aOfJggsSZIfLgrf9M-3" value="Deployment &amp; IT Team" style="swimlane;startSize=20;" vertex="1" parent="WIyWlLk6GJQsqaUBKTNV-1">
          <mxGeometry x="440" width="190" height="990" as="geometry" />
        </mxCell>
        <mxCell id="0a4aOfJggsSZIfLgrf9M-20" value="YES" style="text;strokeColor=none;align=center;fillColor=none;html=1;verticalAlign=middle;whiteSpace=wrap;rounded=0;" vertex="1" parent="0a4aOfJggsSZIfLgrf9M-3">
          <mxGeometry x="-6" y="230" width="60" height="30" as="geometry" />
        </mxCell>
        <mxCell id="0a4aOfJggsSZIfLgrf9M-21" value="NO" style="text;strokeColor=none;align=center;fillColor=none;html=1;verticalAlign=middle;whiteSpace=wrap;rounded=0;" vertex="1" parent="0a4aOfJggsSZIfLgrf9M-3">
          <mxGeometry x="30" y="90" width="60" height="30" as="geometry" />
        </mxCell>
        <mxCell id="0a4aOfJggsSZIfLgrf9M-44" value="Review and Approve CR" style="rounded=0;whiteSpace=wrap;html=1;" vertex="1" parent="0a4aOfJggsSZIfLgrf9M-3">
          <mxGeometry x="40" y="660" width="91" height="70" as="geometry" />
        </mxCell>
        <mxCell id="0a4aOfJggsSZIfLgrf9M-47" value="Execute the changes to production with DQ and BI analysts&#39;s Assistance" style="rounded=0;whiteSpace=wrap;html=1;" vertex="1" parent="0a4aOfJggsSZIfLgrf9M-3">
          <mxGeometry x="15" y="800" width="160" height="60" as="geometry" />
        </mxCell>
        <mxCell id="0a4aOfJggsSZIfLgrf9M-50" style="edgeStyle=orthogonalEdgeStyle;rounded=0;orthogonalLoop=1;jettySize=auto;html=1;entryX=0.39;entryY=-0.023;entryDx=0;entryDy=0;entryPerimeter=0;" edge="1" parent="0a4aOfJggsSZIfLgrf9M-3" source="0a4aOfJggsSZIfLgrf9M-44" target="0a4aOfJggsSZIfLgrf9M-47">
          <mxGeometry relative="1" as="geometry">
            <Array as="points">
              <mxPoint x="75" y="770" />
              <mxPoint x="77" y="770" />
            </Array>
          </mxGeometry>
        </mxCell>
        <mxCell id="0a4aOfJggsSZIfLgrf9M-53" value="YES" style="text;strokeColor=none;align=center;fillColor=none;html=1;verticalAlign=middle;whiteSpace=wrap;rounded=0;" vertex="1" parent="0a4aOfJggsSZIfLgrf9M-3">
          <mxGeometry x="65" y="940" width="60" height="30" as="geometry" />
        </mxCell>
        <mxCell id="0a4aOfJggsSZIfLgrf9M-10" style="edgeStyle=orthogonalEdgeStyle;rounded=0;orthogonalLoop=1;jettySize=auto;html=1;entryX=0.993;entryY=0.362;entryDx=0;entryDy=0;entryPerimeter=0;" edge="1" parent="WIyWlLk6GJQsqaUBKTNV-1" source="0a4aOfJggsSZIfLgrf9M-9" target="0a4aOfJggsSZIfLgrf9M-5">
          <mxGeometry relative="1" as="geometry" />
        </mxCell>
        <mxCell id="0a4aOfJggsSZIfLgrf9M-32" style="edgeStyle=orthogonalEdgeStyle;rounded=0;orthogonalLoop=1;jettySize=auto;html=1;entryX=0;entryY=0.75;entryDx=0;entryDy=0;" edge="1" parent="WIyWlLk6GJQsqaUBKTNV-1" source="0a4aOfJggsSZIfLgrf9M-27" target="0a4aOfJggsSZIfLgrf9M-13">
          <mxGeometry relative="1" as="geometry" />
        </mxCell>
        <mxCell id="0a4aOfJggsSZIfLgrf9M-41" style="edgeStyle=orthogonalEdgeStyle;rounded=0;orthogonalLoop=1;jettySize=auto;html=1;entryX=0.888;entryY=0.003;entryDx=0;entryDy=0;entryPerimeter=0;" edge="1" parent="WIyWlLk6GJQsqaUBKTNV-1" source="0a4aOfJggsSZIfLgrf9M-13" target="0a4aOfJggsSZIfLgrf9M-35">
          <mxGeometry relative="1" as="geometry">
            <Array as="points">
              <mxPoint x="368" y="520" />
              <mxPoint x="264" y="520" />
            </Array>
          </mxGeometry>
        </mxCell>
        <mxCell id="0a4aOfJggsSZIfLgrf9M-42" style="edgeStyle=orthogonalEdgeStyle;rounded=0;orthogonalLoop=1;jettySize=auto;html=1;entryX=0;entryY=0.25;entryDx=0;entryDy=0;" edge="1" parent="WIyWlLk6GJQsqaUBKTNV-1" source="0a4aOfJggsSZIfLgrf9M-35" target="0a4aOfJggsSZIfLgrf9M-39">
          <mxGeometry relative="1" as="geometry" />
        </mxCell>
        <mxCell id="0a4aOfJggsSZIfLgrf9M-43" style="edgeStyle=orthogonalEdgeStyle;rounded=0;orthogonalLoop=1;jettySize=auto;html=1;" edge="1" parent="WIyWlLk6GJQsqaUBKTNV-1" source="0a4aOfJggsSZIfLgrf9M-39" target="0a4aOfJggsSZIfLgrf9M-14">
          <mxGeometry relative="1" as="geometry">
            <Array as="points">
              <mxPoint x="368" y="740" />
              <mxPoint x="190" y="740" />
            </Array>
          </mxGeometry>
        </mxCell>
        <mxCell id="0a4aOfJggsSZIfLgrf9M-2" value="DQ Manager" style="swimlane;startSize=20;" vertex="1" parent="WIyWlLk6GJQsqaUBKTNV-1">
          <mxGeometry x="310" width="130" height="990" as="geometry" />
        </mxCell>
        <mxCell id="0a4aOfJggsSZIfLgrf9M-13" value="Approve PR" style="rounded=0;whiteSpace=wrap;html=1;" vertex="1" parent="0a4aOfJggsSZIfLgrf9M-2">
          <mxGeometry x="13" y="360" width="91" height="65" as="geometry" />
        </mxCell>
        <mxCell id="0a4aOfJggsSZIfLgrf9M-39" value="Approve PR" style="rounded=0;whiteSpace=wrap;html=1;" vertex="1" parent="0a4aOfJggsSZIfLgrf9M-2">
          <mxGeometry x="13" y="620" width="91" height="65" as="geometry" />
        </mxCell>
        <mxCell id="0a4aOfJggsSZIfLgrf9M-46" style="edgeStyle=orthogonalEdgeStyle;rounded=0;orthogonalLoop=1;jettySize=auto;html=1;entryX=0;entryY=0.5;entryDx=0;entryDy=0;" edge="1" parent="WIyWlLk6GJQsqaUBKTNV-1" source="0a4aOfJggsSZIfLgrf9M-14" target="0a4aOfJggsSZIfLgrf9M-44">
          <mxGeometry relative="1" as="geometry" />
        </mxCell>
        <mxCell id="0a4aOfJggsSZIfLgrf9M-52" style="edgeStyle=orthogonalEdgeStyle;rounded=0;orthogonalLoop=1;jettySize=auto;html=1;entryX=1;entryY=0.75;entryDx=0;entryDy=0;" edge="1" parent="WIyWlLk6GJQsqaUBKTNV-1" source="0a4aOfJggsSZIfLgrf9M-51" target="0a4aOfJggsSZIfLgrf9M-12">
          <mxGeometry relative="1" as="geometry">
            <Array as="points">
              <mxPoint x="733" y="933" />
            </Array>
          </mxGeometry>
        </mxCell>
        <mxCell id="0a4aOfJggsSZIfLgrf9M-55" style="edgeStyle=orthogonalEdgeStyle;rounded=0;orthogonalLoop=1;jettySize=auto;html=1;entryX=1;entryY=0.75;entryDx=0;entryDy=0;exitX=0.5;exitY=0;exitDx=0;exitDy=0;" edge="1" parent="WIyWlLk6GJQsqaUBKTNV-1" source="0a4aOfJggsSZIfLgrf9M-51" target="0a4aOfJggsSZIfLgrf9M-5">
          <mxGeometry relative="1" as="geometry">
            <mxPoint x="760" y="720" as="sourcePoint" />
            <Array as="points">
              <mxPoint x="770" y="740" />
              <mxPoint x="770" y="83" />
            </Array>
          </mxGeometry>
        </mxCell>
        <mxCell id="0a4aOfJggsSZIfLgrf9M-57" value="Data Quality Report Development Steps with Databricks, PowerBI and DevOps" style="text;strokeColor=none;align=center;fillColor=none;html=1;verticalAlign=middle;whiteSpace=wrap;rounded=0;" vertex="1" parent="WIyWlLk6GJQsqaUBKTNV-1">
          <mxGeometry x="250" y="1020" width="436" height="50" as="geometry" />
        </mxCell>
      </root>
    </mxGraphModel>
  </diagram>
</mxfile>
